<?xml version="1.0" standalone="no"?>
<!DOCTYPE svg PUBLIC "-//W3C//DTD SVG 20010904//EN"
 "http://www.w3.org/TR/2001/REC-SVG-20010904/DTD/svg10.dtd">
<svg version="1.0" xmlns="http://www.w3.org/2000/svg"
 width="800.000000pt" height="800.000000pt" viewBox="0 0 800.000000 800.000000"
 preserveAspectRatio="xMidYMid meet">
<metadata>
Created by potrace 1.11, written by Peter Selinger 2001-2013
</metadata>
<g transform="translate(0.000000,800.000000) scale(0.100000,-0.100000)"
fill="#000000" stroke="none">
<path d="M4077 6664 c-9 -27 -43 -128 -77 -224 -34 -96 -82 -235 -107 -307
l-45 -133 -628 0 -628 0 -116 45 c-112 43 -153 54 -143 38 3 -5 8 -134 11
-288 14 -607 22 -938 25 -990 3 -34 59 150 115 375 29 118 63 241 76 273 31
81 76 138 135 167 l50 25 488 3 c268 2 487 1 487 -2 0 -3 -16 -49 -36 -103
-19 -54 -48 -137 -64 -184 -16 -47 -35 -103 -44 -125 -15 -38 -392 -1078 -466
-1284 -93 -261 -323 -886 -329 -898 -5 -8 -46 78 -103 215 -53 125 -180 428
-283 673 -103 245 -193 459 -200 475 -8 17 -73 172 -146 345 -182 435 -288
689 -306 730 -8 19 -19 44 -24 55 -64 150 -130 312 -146 360 -57 169 -73 346
-38 402 36 57 120 105 282 159 59 20 132 47 160 60 29 13 64 26 78 30 14 3 28
10 31 15 3 5 15 9 26 9 12 0 18 3 14 7 -8 8 -1816 11 -1816 3 0 -11 170 -101
245 -130 137 -53 245 -102 290 -132 37 -25 52 -46 95 -133 27 -57 50 -109 50
-115 0 -6 4 -18 10 -28 8 -14 91 -216 275 -667 18 -44 70 -170 115 -280 46
-110 91 -220 100 -245 10 -25 72 -180 139 -344 128 -315 347 -865 488 -1226
182 -466 242 -632 416 -1165 l23 -70 150 -3 151 -3 13 58 c8 32 15 65 16 73 6
38 29 134 55 235 42 161 490 1506 732 2195 36 102 71 201 77 220 7 19 15 38
19 42 3 4 6 -664 5 -1485 0 -1479 0 -1492 -20 -1537 -43 -95 -80 -120 -284
-197 -52 -20 -162 -53 -245 -74 -82 -21 -161 -42 -175 -48 -17 -7 301 -10 990
-10 558 0 1008 3 1000 8 -19 11 -248 86 -320 105 -293 78 -345 108 -403 234
l-22 47 -2 1500 c-2 874 1 1494 6 1485 16 -27 191 -449 322 -780 152 -381 142
-355 162 -401 85 -197 352 -905 437 -1159 34 -102 87 -258 117 -347 l55 -163
149 0 c82 0 150 3 150 8 5 27 8 60 13 156 13 227 -6 160 415 1416 116 344 219
650 230 680 11 30 54 156 96 280 42 124 80 234 85 245 5 11 18 47 29 80 19 58
88 254 166 475 52 146 174 478 192 520 8 19 19 44 24 55 4 11 20 49 35 85 25
61 88 184 123 240 44 71 100 101 346 186 192 67 313 112 305 115 -15 5 -1658
3 -1652 -2 9 -8 318 -139 327 -139 22 0 174 -87 198 -113 44 -50 44 -59 11
-240 -3 -16 -12 -46 -19 -68 -8 -21 -12 -39 -9 -39 2 0 -4 -17 -15 -37 -10
-21 -37 -92 -60 -158 -22 -66 -48 -140 -56 -165 -9 -25 -19 -54 -24 -65 -8
-18 -127 -357 -217 -615 -18 -52 -51 -147 -74 -210 -23 -63 -52 -146 -65 -185
-38 -112 -195 -558 -206 -585 -6 -14 -21 -56 -34 -95 -27 -80 -132 -382 -141
-405 -14 -34 -106 -297 -115 -327 -6 -18 -13 -33 -17 -33 -20 1 -290 604 -552
1235 -104 250 -481 1148 -529 1258 l-21 49 413 -4 c468 -5 487 -8 557 -78 54
-54 116 -191 176 -390 19 -63 43 -142 54 -175 10 -33 30 -97 43 -143 14 -46
27 -85 29 -87 4 -4 5 112 13 968 1 202 -1 367 -6 367 -5 0 -76 -25 -159 -55
l-151 -55 -557 0 -558 0 -32 83 c-18 45 -59 170 -92 277 -99 320 -103 335
-111 344 -4 5 -14 -13 -22 -40z"/>
</g>
</svg>
